<?xml version="1.0" standalone="no"?>
<!DOCTYPE svg PUBLIC "-//W3C//DTD SVG 1.1//EN" "http://www.w3.org/Graphics/SVG/1.1/DTD/svg11.dtd" >
<svg xmlns="http://www.w3.org/2000/svg">
<metadata>
This is a custom SVG webfont generated by Font Squirrel.
Copyright   : Copyright c 2011 gluk glukszawppl
Designer    : gluk glukszawppl
Foundry     : gluk glukszawppl
Foundry URL : httpsitesgooglecomsiteglukfonts
</metadata>
<defs>
<font id="RawengulkSansRegular" horiz-adv-x="1169" >
<font-face units-per-em="2048" ascent="1610" descent="-438" />
<missing-glyph horiz-adv-x="657" />
<glyph unicode=" "  horiz-adv-x="657" />
<glyph unicode="&#x09;" horiz-adv-x="657" />
<glyph unicode="&#xa0;" horiz-adv-x="657" />
<glyph unicode="!" horiz-adv-x="290" d="M82 45q0 27 18.5 46.5t45 19.5t46 -19.5t19.5 -46.5t-19.5 -45t-46 -18t-45 18t-18.5 45zM111 367v1024h71v-1024h-71z" />
<glyph unicode="&#x22;" horiz-adv-x="475" d="M92 1104l17 55q18 68 18 162q0 51 -4 68l72 12q6 -25 6 -80q0 -104 -21 -180l-18 -58zM293 1104l16 55q20 76 21 162q0 43 -6 68l71 12q6 -25 6 -80q0 -104 -20 -180l-16 -58z" />
<glyph unicode="#" horiz-adv-x="768" d="M37 438l6 74h145l25 293h-145l8 74h143l21 219h73l-20 -219h219l20 219h74l-20 -219h145l-6 -74h-145l-25 -293h145l-8 -74h-143l-21 -219h-73l20 219h-219l-20 -219h-74l20 219h-145zM262 512h219l25 293h-219z" />
<glyph unicode="$" d="M47 225l51 51q61 -63 192.5 -126.5t258.5 -73.5v600q-80 20 -133.5 36.5t-116.5 46t-100 62.5t-62.5 83t-25.5 112q0 119 131 204t307 95v110h74v-110q268 -16 426 -174l-50 -51q-68 68 -170 106.5t-206 44.5v-506q96 -25 150 -40t134 -49t122 -70.5t74 -96t32 -135.5 q0 -147 -136.5 -242.5t-375.5 -101.5v-111h-74v113q-145 10 -289.5 82t-212.5 141zM182 1016q0 -106 93.5 -161.5t273.5 -100.5v487q-156 -8 -261.5 -77.5t-105.5 -147.5zM623 74q203 6 320.5 79.5t117.5 190.5q0 49 -15.5 88t-50 69.5t-67.5 52t-92.5 42t-100 32 t-112.5 29.5v-583z" />
<glyph unicode="%" horiz-adv-x="1243" d="M37 1061q0 102 67.5 179t188.5 77t188.5 -77t67.5 -179q0 -104 -68.5 -180t-187.5 -76t-187.5 75.5t-68.5 180.5zM82 96l1024 1172l55 -47l-1024 -1172zM111 1061q0 -76 46 -129t136 -53t136 53t46 129q0 74 -46 128t-136 54q-88 0 -135 -54t-47 -128zM694 256 q0 102 67.5 179t188.5 77t188.5 -77t67.5 -179q0 -104 -68.5 -180t-187.5 -76t-187.5 76t-68.5 180zM768 256q0 -76 46 -129t136 -53t137.5 53t47.5 129q0 74 -47.5 128t-137.5 54q-88 0 -135 -54t-47 -128z" />
<glyph unicode="&#x26;" horiz-adv-x="1314" d="M37 367q0 129 87 225t218 117q-86 121 -86 233v8q0 121 86 207t207 86q119 0 206 -73.5t87 -182.5v-37h-74v37q0 74 -63.5 128t-155.5 54q-90 0 -154.5 -64.5t-64.5 -154.5v-8q0 -82 52 -163t214 -255l344 -368q139 117 139 276q0 96 -50 160.5t-116 64.5v74h330v-74 h-188q98 -84 98 -225q0 -190 -162 -330q33 -29 78 -28h211v-74h-211q-74 0 -137 59q-154 -96 -342 -96q-229 0 -391 119t-162 285zM111 367q0 -137 140 -233.5t339 -96.5q160 0 289 76l-336 362q-104 113 -162 182q-115 -10 -192.5 -92.5t-77.5 -197.5z" />
<glyph unicode="'" horiz-adv-x="256" d="M92 1104l17 55q18 68 18 162q0 51 -4 68l72 12q6 -25 6 -80q0 -104 -21 -180l-18 -58z" />
<glyph unicode="(" horiz-adv-x="438" d="M37 548.5q0 282.5 84 542t246 453.5l41 -33q-150 -178 -223.5 -429.5t-73.5 -532.5q0 -608 297 -963l-41 -35q-164 197 -247 456t-83 541.5z" />
<glyph unicode=")" horiz-adv-x="438" d="M31 -414q299 359 299 963q0 279 -75 530.5t-224 431.5l43 33q162 -193 244.5 -453t82.5 -542.5t-81.5 -541.5t-245.5 -456z" />
<glyph unicode="*" horiz-adv-x="583" d="M37 1114l24 68l195 -70v205h74v-205l192 70l27 -68l-199 -72l123 -168l-57 -45l-123 170l-123 -170l-59 45l122 168z" />
<glyph unicode="+" horiz-adv-x="913" d="M55 657v74h365v367h74v-367h366v-74h-366v-364h-74v364h-365z" />
<glyph unicode="," horiz-adv-x="290" d="M45 -178q74 74 74 164q-45 14 -45 59q0 27 18.5 46.5t45 19.5t45 -19.5t18.5 -46.5q0 -133 -123 -256z" />
<glyph unicode="-" horiz-adv-x="694" d="M55 586v71h584v-71h-584z" />
<glyph unicode="." horiz-adv-x="290" d="M74 45q0 27 18.5 46.5t45 19.5t45 -19.5t18.5 -46.5t-18.5 -45t-45 -18t-45 18t-18.5 45z" />
<glyph unicode="/" horiz-adv-x="1024" d="M0 -78l963 1503l61 -39l-963 -1503z" />
<glyph unicode="0" horiz-adv-x="913" d="M55 657.5q0 272.5 114 475t288 202.5t288.5 -202.5t114.5 -475t-114.5 -474t-288.5 -201.5t-288 201.5t-114 474zM127 657q0 -258 100.5 -430t229.5 -172t229 172t100 430t-100 431.5t-229 173.5t-229.5 -173.5t-100.5 -431.5z" />
<glyph unicode="1" horiz-adv-x="364" d="M27 1139l157 178h72v-1317h-74v1206h-2q-18 -25 -54 -64.5t-44 -49.5z" />
<glyph unicode="2" horiz-adv-x="950" d="M74 0v68l465 440q147 139 206.5 235.5t59.5 188.5q0 135 -96.5 232.5t-233.5 97.5t-233.5 -91.5t-96.5 -220.5h-71q0 160 117.5 272.5t283.5 112.5t285 -118.5t119 -284.5q0 -113 -67 -222.5t-222 -254.5l-412 -377v-4h701v-74h-805z" />
<glyph unicode="3" horiz-adv-x="987" d="M37 367h74q0 -127 96 -219.5t268 -92.5q174 0 270.5 91.5t96.5 220.5t-98.5 228t-268.5 99v74q119 0 187.5 78t68.5 178t-67.5 169t-188.5 69t-188.5 -70t-67.5 -168h-74q0 127 88.5 219t242 92t241.5 -92t88 -219q0 -92 -55.5 -170t-143.5 -115v-2q135 -37 221 -139 t86 -231q0 -158 -117.5 -271.5t-320.5 -113.5t-320.5 113.5t-117.5 271.5z" />
<glyph unicode="4" horiz-adv-x="931" d="M18 219v70l7 8q252 346 360.5 580.5t108.5 439.5h73q0 -217 -106.5 -452.5t-347.5 -571.5h600v586h73v-586h111v-74h-111v-219h-73v219h-695z" />
<glyph unicode="5" horiz-adv-x="950" d="M74 195l61 34q20 -35 51 -68.5t100.5 -69.5t151.5 -36q162 0 264.5 122t102.5 298t-102.5 299t-264.5 123q-158 0 -262 -123l-18 -22l-60 26l31 539h639v-74h-569l-21 -381q113 107 260 107q193 0 317 -143.5t124 -350.5t-124 -350t-317 -143q-117 0 -211 57t-153 156z " />
<glyph unicode="6" horiz-adv-x="894" d="M55 475q0 248 46 438.5t147.5 306t245.5 115.5q127 0 251 -59l-30 -68q-117 53 -221 54q-137 0 -236.5 -140.5t-132.5 -396.5h2q51 111 138 177.5t192 66.5q164 0 283.5 -143.5t119.5 -350.5t-119.5 -350t-283.5 -143t-283 143t-119 350zM127 475q0 -176 97.5 -298 t232.5 -122t232 122t97 298q0 178 -98 300t-231 122t-231.5 -122t-98.5 -300z" />
<glyph unicode="7" horiz-adv-x="821" d="M0 1243v74h786v-68l-170 -233q-268 -365 -268 -1016h-74q0 678 281 1061q72 98 139 178v4h-694z" />
<glyph unicode="8" horiz-adv-x="987" d="M55 367q0 129 86 231t221 139v2q-88 37 -143 115t-55 170q0 127 88 219t241.5 92t240.5 -91t89 -220q0 -92 -55 -170t-143 -115v-2q135 -37 221 -139t86 -231q-2 -160 -119 -272.5t-319 -112.5q-205 0 -322 112.5t-117 272.5zM127 367q0 -129 96 -220.5t270.5 -91.5 t270.5 91.5t96 220.5t-98 228t-268 99t-268.5 -99t-98.5 -228zM238 1024q0 -100 68.5 -178t187 -78t187.5 78t69 178t-68 169t-188.5 69t-188 -69t-67.5 -169z" />
<glyph unicode="9" horiz-adv-x="894" d="M37 842q0 207 118.5 350t282.5 143t284 -143t120 -350q0 -248 -47 -438.5t-148.5 -306t-245.5 -115.5q-127 0 -251 59l30 68q117 -53 221 -54q137 0 237.5 140.5t133.5 396.5h-2q-51 -111 -139 -177.5t-193 -66.5q-164 0 -282.5 143.5t-118.5 350.5zM111 842 q0 -178 97 -300t230 -122t231.5 122t98.5 300q0 176 -97.5 298t-232.5 122q-133 0 -230 -121t-97 -299z" />
<glyph unicode=":" horiz-adv-x="290" d="M74 45q0 27 18.5 46.5t45 19.5t45 -19.5t18.5 -46.5t-18.5 -45t-45 -18t-45 18t-18.5 45zM74 831.5q0 26.5 18.5 46t45 19.5t45 -19.5t18.5 -46t-18.5 -45t-45 -18.5t-45 18.5t-18.5 45z" />
<glyph unicode=";" horiz-adv-x="290" d="M27 -160q70 70 92 146q-45 14 -45 59q0 27 18.5 46.5t45 19.5t45 -19.5t18.5 -46.5q0 -133 -123 -256zM74 831.5q0 26.5 18.5 46t45 19.5t45 -19.5t18.5 -46t-18.5 -45t-45 -18.5t-45 18.5t-18.5 45z" />
<glyph unicode="&#x3c;" horiz-adv-x="802" d="M37 618v82l655 347l33 -66l-612 -322v-2l612 -335l-35 -64z" />
<glyph unicode="=" horiz-adv-x="913" d="M55 438v74h805v-74h-805zM55 805v74h805v-74h-805z" />
<glyph unicode="&#x3e;" horiz-adv-x="802" d="M80 322l612 335v2l-612 322l33 66l655 -347v-82l-653 -360z" />
<glyph unicode="?" horiz-adv-x="839" d="M37 1024q0 160 106.5 272.5t258 112.5t259 -108.5t107.5 -258.5q0 -94 -38 -163.5t-91 -109.5t-107.5 -73.5t-92.5 -74.5t-38 -95v-159h-71v159q0 70 38 122t91 86t106 70t91 96.5t38 141.5q0 121 -86 207t-206.5 86t-205.5 -91t-85 -220h-74zM301 45q0 27 19.5 46.5 t46 19.5t45 -19.5t18.5 -46.5t-18.5 -45t-45 -18t-46 18t-19.5 45z" />
<glyph unicode="@" horiz-adv-x="1681" d="M55 401q0 344 255 600t632 256q219 0 379 -96t233.5 -238.5t73.5 -306.5q0 -242 -136 -412.5t-329 -170.5q-147 0 -180 108h-2q-106 -119 -242 -118q-113 0 -203 89t-90 250q0 244 149.5 404t309.5 160h283l-131 -668q-8 -49 -8 -61q0 -90 114 -91q162 0 276.5 150 t114.5 360q0 106 -37.5 206t-110.5 181.5t-193.5 132t-270.5 50.5q-172 0 -325.5 -65.5t-260 -174t-168 -251t-61.5 -294.5q0 -252 162 -427t459 -175q217 0 399 92l31 -63q-205 -102 -430 -102q-326 0 -509.5 196.5t-183.5 478.5zM520 362q0 -129 68.5 -198.5t150.5 -69.5 q61 0 132 44t108 122l6 16l115 576h-195q-129 0 -257 -139.5t-128 -350.5z" />
<glyph unicode="A" d="M2 12l555 1397h55l557 -1397l-69 -24l-152 379h-727l-149 -379zM250 438h670l-334 840z" />
<glyph unicode="B" d="M111 0v1391h446q176 0 303 -90.5t127 -223.5q0 -94 -67.5 -172t-178.5 -121v-2q170 -29 282 -140.5t112 -256.5q0 -158 -139.5 -271.5t-338.5 -113.5h-546zM182 74h475q168 0 286 92t118 219q0 141 -120 243.5t-292 102.5h-467v-657zM182 805h348q162 0 272.5 81 t110.5 191q0 96 -103 168t-253 72h-375v-512z" />
<glyph unicode="C" horiz-adv-x="1243" d="M37 694q0 297 199.5 506t494.5 209q260 0 457 -164l-47 -55q-172 145 -410 145q-262 0 -441 -187t-179 -453.5t179 -453t441 -186.5q240 0 410 144l47 -54q-196 -163 -454 -163h-3q-295 0 -494.5 207.5t-199.5 504.5z" />
<glyph unicode="D" horiz-adv-x="1314" d="M111 0v1391h475q289 0 491.5 -204t202.5 -492.5t-203 -491.5t-491 -203h-475zM182 74h404q258 0 439 181t181 439t-181 440.5t-439 182.5h-404v-1243z" />
<glyph unicode="E" horiz-adv-x="1095" d="M111 0v1391h876v-74h-805v-586h512v-74h-512v-583h879v-74h-950z" />
<glyph unicode="F" horiz-adv-x="1095" d="M111 0v1391h950v-74h-879v-586h586v-74h-586v-657h-71z" />
<glyph unicode="G" horiz-adv-x="1351" d="M37 694q0 297 199.5 506t494.5 209q279 0 473 -178l-49 -53q-169 157 -421 157h-3q-262 0 -441 -187.5t-179 -453.5q2 -268 179 -453.5t441 -185.5q160 0 289 92.5t186 239.5v199h-293v71h367v-657h-61l-11 256h-2q-78 -125 -203.5 -199.5t-271.5 -74.5 q-295 0 -493.5 206.5t-200.5 505.5z" />
<glyph unicode="H" horiz-adv-x="1243" d="M111 0v1391h71v-660h879v660h74v-1391h-74v657h-879v-657h-71z" />
<glyph unicode="I" horiz-adv-x="290" d="M111 0v1391h71v-1391h-71z" />
<glyph unicode="J" horiz-adv-x="694" d="M6 115l62 39q29 -45 89 -72t128 -27q111 0 187.5 69t76.5 187v1006h-438v74h512v-1080q0 -152 -99.5 -240.5t-238.5 -88.5q-82 0 -161 34.5t-118 98.5z" />
<glyph unicode="K" d="M111 0v1391h71v-942l819 960l56 -47l-541 -635l490 -577q41 -45 62.5 -60.5t53.5 -15.5h13v-74h-13q-53 0 -89 23.5t-83 78.5l-483 568l-285 -334v-336h-71z" />
<glyph unicode="L" horiz-adv-x="1095" d="M111 0v1391h71v-1317h879v-74h-950z" />
<glyph unicode="M" horiz-adv-x="1826" d="M37 6l184 1399h62l630 -1337l633 1337h62l184 -1399l-74 -12l-164 1251l-598 -1263h-82l-600 1265l-163 -1253z" />
<glyph unicode="N" horiz-adv-x="1243" d="M111 0v1409h73l877 -1298v1280h74v-1409h-76l-877 1296v-1278h-71z" />
<glyph unicode="O" horiz-adv-x="1462" d="M37 694q0 295 202.5 505t491.5 210t491.5 -210t202.5 -505t-202.5 -503.5t-491.5 -208.5t-491.5 208.5t-202.5 503.5zM111 694q0 -264 181 -451.5t439 -187.5t440.5 187.5t182.5 451.5t-182.5 452.5t-440.5 188.5t-439 -188.5t-181 -452.5z" />
<glyph unicode="P" d="M111 0v1391h546q199 0 338.5 -139.5t139.5 -338t-139.5 -337t-338.5 -138.5h-475v-438h-71zM182 512h475q166 0 285 118t119 283.5t-119 284.5t-285 119h-475v-805z" />
<glyph unicode="Q" horiz-adv-x="1462" d="M37 694q0 295 202.5 505t491.5 210t491.5 -210t202.5 -505t-202.5 -503.5t-491.5 -208.5q-270 0 -389 -191q76 41 158 41q96 0 301 -61.5t262 -61.5q43 0 70.5 31t27.5 59h74q0 -59 -50 -110t-122 -51q-70 0 -272.5 60t-290.5 60q-55 0 -114.5 -28.5t-70.5 -67.5l-8 -29 h-80v37q0 88 76 191.5t211 154.5q-211 72 -344 258.5t-133 419.5zM111 694.5q0 -266.5 182 -453t438 -186.5q258 0 440.5 187.5t182.5 451.5q0 266 -183.5 453.5t-439.5 187.5t-438 -187t-182 -453.5z" />
<glyph unicode="R" d="M111 0v1391h483q219 0 343 -120t124 -284q0 -190 -152 -307q-82 -66 -247 -78v-2q82 -41 135 -123l213 -332q27 -43 50 -57t62 -14h13v-74h-13q-53 0 -94 21.5t-82 84.5l-211 330q-63 98 -138 124t-230 26h-185v-586h-71zM182 657h412q193 0 293 100.5t100 229.5 q0 133 -102.5 231.5t-290.5 98.5h-412v-660z" />
<glyph unicode="S" d="M37 195l51 51q68 -68 195 -129.5t303 -61.5q201 0 338 93.5t137 218.5q0 111 -98.5 184.5t-237.5 116.5t-278.5 87t-237.5 125t-98 199q0 141 141 235.5t334 94.5q283 0 475 -172l-47 -55q-167 153 -425 153h-3q-172 0 -288 -77.5t-116 -178.5q0 -82 71 -143.5t176.5 -95 t229 -75.5t229 -84t176.5 -123t71 -191q0 -164 -163 -274.5t-386 -110.5q-195 0 -334 67.5t-215 145.5z" />
<glyph unicode="T" d="M37 1317v74h1098v-74h-512v-1317h-74v1317h-512z" />
<glyph unicode="U" d="M74 494v897h71v-897q0 -180 129 -309.5t312 -129.5q180 0 309 128t129 311v897h74v-897q0 -211 -149.5 -361.5t-362.5 -150.5t-362.5 150.5t-149.5 361.5z" />
<glyph unicode="V" d="M2 1376l70 27l514 -1292l514 1292l69 -27l-557 -1394h-55z" />
<glyph unicode="W" horiz-adv-x="1900" d="M2 1376l70 27l477 -1286l364 936v190h74v-190l367 -936l477 1286l70 -27l-521 -1394h-55l-375 964l-375 -964h-55z" />
<glyph unicode="X" d="M8 23l531 696l-496 649l59 43l484 -633l481 633l59 -43l-495 -649l532 -696l-59 -46l-518 680l-520 -680z" />
<glyph unicode="Y" d="M6 1372l62 37l518 -848l516 848l63 -37l-542 -891v-481h-74v481z" />
<glyph unicode="Z" horiz-adv-x="1095" d="M37 0v47l878 1268h3v2h-844v74h950v-50l-879 -1265h-2v-2h918v-74h-1024z" />
<glyph unicode="[" horiz-adv-x="364" d="M111 -438v1974h219v-74h-148v-1829h148v-71h-219z" />
<glyph unicode="\" horiz-adv-x="1024" d="M0 1386l61 39l963 -1503l-61 -39z" />
<glyph unicode="]" horiz-adv-x="364" d="M37 -367h145v1829h-145v74h219v-1974h-219v71z" />
<glyph unicode="^" horiz-adv-x="950" d="M37 897l409 512q8 10 23 10q12 0 20 -10l396 -514l-43 -33l-373 484l-391 -486z" />
<glyph unicode="_" horiz-adv-x="1314" d="M37 -311h1243v-56h-1243v56z" />
<glyph unicode="`" horiz-adv-x="364" d="M18 1333l76 76l254 -256l-49 -55z" />
<glyph unicode="a" horiz-adv-x="1005" d="M37 293q0 123 107.5 208t256.5 85h441v90q0 88 -95.5 154.5t-234.5 66.5q-178 0 -315 -84l-39 61q154 94 354 95q164 0 282.5 -84t118.5 -209v-676h-61l-8 201h-2q-59 -100 -167 -159.5t-237 -59.5q-186 0 -293.5 88t-107.5 223zM111 293q0 -102 84.5 -170t242.5 -68 q164 0 284 103.5t120 224.5v129h-441q-123 0 -206.5 -65.5t-83.5 -153.5z" />
<glyph unicode="b" horiz-adv-x="1095" d="M111 0v1391h71v-678h2q59 115 167 184.5t235 71.5q197 0 336 -145.5t139 -348.5t-139.5 -348t-335.5 -145q-127 2 -233.5 70.5t-166.5 183.5h-6l-8 -236h-61zM182 475q0 -174 119 -297t285 -123t283.5 123t117.5 297q0 172 -117.5 297t-283.5 125t-285 -125t-119 -297z " />
<glyph unicode="c" horiz-adv-x="950" d="M37 475q0 203 144 348.5t349 145.5q201 0 349 -158l-54 -51q-131 137 -295 137q-172 0 -295.5 -125t-123.5 -297t123.5 -296t295.5 -124q166 0 295 135l54 -51q-146 -157 -346 -157h-3q-203 0 -348 145t-145 348z" />
<glyph unicode="d" horiz-adv-x="1095" d="M37 475q0 203 139 348.5t336 145.5q127 -2 234.5 -72t166.5 -184v678h74v-1391h-61l-8 236h-7q-59 -115 -165.5 -183.5t-233.5 -70.5q-197 0 -336 145t-139 348zM111 475q0 -172 117.5 -296t283.5 -124t283.5 124t117.5 296q0 174 -117.5 298t-283.5 124t-283.5 -124 t-117.5 -298z" />
<glyph unicode="e" horiz-adv-x="987" d="M37 475q0 205 145.5 349.5t347.5 144.5q121 0 225.5 -54.5t174.5 -148.5l18 -27l-24 -22q-4 -4 -80 -73t-118 -100.5t-118.5 -68.5t-142.5 -37h-354q14 -162 135 -272.5t284 -110.5q180 0 308 133l53 -49q-146 -157 -358 -157h-3q-205 0 -349 144t-144 349zM111 512h356 q33 0 70.5 13.5t66.5 27.5t72 48t60.5 48.5t61.5 55t50 45.5q-127 147 -318 147q-162 0 -283.5 -111.5t-135.5 -273.5z" />
<glyph unicode="f" horiz-adv-x="657" d="M37 879v71h145v148q0 129 91.5 220t220.5 91q86 0 156.5 -42t111.5 -114l-62 -36q-67 118 -204 118h-2q-98 0 -168 -69.5t-70 -167.5v-148h293v-71h-293v-879h-74v879h-145z" />
<glyph unicode="g" horiz-adv-x="1095" d="M37 475q0 203 139 348.5t336 145.5q127 -2 233.5 -71t165.5 -183h7l8 235h61v-895q0 -205 -144.5 -349t-348.5 -144q-215 0 -361 155l53 52q129 -135 308 -136q174 0 296.5 124t122.5 298v183q-59 -115 -166.5 -184.5t-234.5 -71.5q-197 0 -336 145t-139 348zM111 475 q0 -174 117.5 -297t283.5 -123t283.5 123t117.5 297q0 172 -117.5 297t-283.5 125t-283.5 -125t-117.5 -297z" />
<glyph unicode="h" horiz-adv-x="1077" d="M111 0v1391h71v-711h4q63 131 180 210t257 79q166 0 265 -89t99 -241v-639h-74v639q0 123 -77.5 190.5t-212.5 67.5q-182 0 -311.5 -139.5t-129.5 -337.5v-420h-71z" />
<glyph unicode="i" horiz-adv-x="290" d="M82 1253.5q0 26.5 18.5 45t45 18.5t46 -18.5t19.5 -45t-19.5 -46t-46 -19.5t-45 19.5t-18.5 46zM111 0v950h71v-950h-71z" />
<glyph unicode="j" horiz-adv-x="290" d="M-111 -367h19q84 0 143.5 60.5t59.5 142.5v1114h71v-1114q0 -115 -81 -194.5t-193 -79.5h-19v71zM82 1253.5q0 26.5 18.5 45t45 18.5t46 -18.5t19.5 -45t-19.5 -46t-46 -19.5t-45 19.5t-18.5 46z" />
<glyph unicode="k" horiz-adv-x="950" d="M111 0v1391h71v-1010l596 596l51 -51l-393 -396l342 -380q68 -76 125 -76h10v-74h-10q-51 0 -90 23.5t-88 76.5l-342 377l-201 -201v-276h-71z" />
<glyph unicode="l" horiz-adv-x="290" d="M111 78v1313h71v-1313q0 -4 4 -4v-74q-33 0 -54 22.5t-21 55.5z" />
<glyph unicode="m" horiz-adv-x="1736" d="M111 0v950h63l6 -264h4q59 129 167 206t235 77q150 0 233.5 -75t93.5 -214q59 131 167 210t237 79q160 0 245 -85t85 -245v-639h-74v639q0 258 -256 258q-166 0 -285 -139.5t-119 -337.5v-420h-71v639q0 258 -256 258q-166 0 -285 -139.5t-119 -337.5v-420h-71z" />
<glyph unicode="n" horiz-adv-x="1077" d="M111 0v950h61l8 -270h6q63 131 180 210t257 79q166 0 265 -89t99 -241v-639h-74v639q0 123 -77.5 190.5t-212.5 67.5q-182 0 -311.5 -139.5t-129.5 -337.5v-420h-71z" />
<glyph unicode="o" horiz-adv-x="1024" d="M37 475q0 205 139 349.5t336 144.5t336 -144.5t139 -349.5t-139 -349t-336 -144t-336 144t-139 349zM111 475q0 -174 117.5 -297t283.5 -123t283.5 123t117.5 297t-117.5 298t-283.5 124t-283.5 -124t-117.5 -298z" />
<glyph unicode="p" horiz-adv-x="1095" d="M111 -438v1388h61l8 -235h6q59 115 166 183.5t234 70.5q197 0 336 -145.5t139 -348.5t-139.5 -348t-335.5 -145q-127 2 -234.5 71.5t-167.5 184.5h-2v-676h-71zM182 475q0 -174 119 -297t285 -123t283.5 123t117.5 297q0 172 -117.5 297t-283.5 125t-285 -125t-119 -297z " />
<glyph unicode="q" horiz-adv-x="1095" d="M37 475q0 203 139 348.5t336 145.5q127 -2 233.5 -71t165.5 -183h7l8 235h61v-1317h37v-71h-111v676q-59 -115 -166.5 -184.5t-234.5 -71.5q-197 0 -336 145t-139 348zM111 475q0 -174 117.5 -297t283.5 -123t283.5 123t117.5 297q0 172 -117.5 297t-283.5 125 t-283.5 -125t-117.5 -297z" />
<glyph unicode="r" horiz-adv-x="657" d="M111 0v950h61l8 -305h4q61 147 179 235.5t260 88.5l-9 -74q-178 -4 -305 -158.5t-127 -369.5v-367h-71z" />
<glyph unicode="s" horiz-adv-x="876" d="M37 145l57 45q104 -135 344 -135q141 0 235.5 62.5t94.5 138.5q0 70 -67.5 116t-165 73.5t-193.5 57t-163.5 86t-67.5 142.5q0 102 97 170t230 68q213 0 330 -144l-55 -49q-100 121 -275 121q-102 0 -179 -48t-77 -118q0 -63 67.5 -105t165 -69t195 -58.5t165 -92 t67.5 -150.5q0 -119 -121 -196.5t-283 -77.5q-143 0 -246.5 47t-154.5 116z" />
<glyph unicode="t" horiz-adv-x="657" d="M37 879v71h145v219h74v-219h367v-71h-367v-623q0 -84 58.5 -142.5t142.5 -58.5q76 0 143 47l43 -59q-80 -61 -186 -61q-113 0 -194 80.5t-81 193.5v623h-145z" />
<glyph unicode="u" horiz-adv-x="1077" d="M92 311v639h72v-639q0 -123 79 -189.5t214 -66.5q182 0 311 139.5t129 335.5v420h72v-950h-62l-8 270h-6q-63 -131 -180 -209.5t-256 -78.5q-166 0 -265.5 89t-99.5 240z" />
<glyph unicode="v" horiz-adv-x="1058" d="M23 934l65 33l442 -871l443 871l65 -33l-483 -950h-49z" />
<glyph unicode="w" horiz-adv-x="1607" d="M25 936l65 29l385 -859l293 650v157h74v-157l293 -650l385 859l65 -29l-426 -952h-51l-303 673l-303 -673h-51z" />
<glyph unicode="x" horiz-adv-x="950" d="M8 25l418 471l-381 432l55 47l375 -424l375 424l55 -47l-381 -432l418 -471l-55 -50l-412 465l-412 -465z" />
<glyph unicode="y" horiz-adv-x="1024" d="M-14 -305l61 39q27 -43 71 -72t89 -29q102 0 178 156l68 135l-449 1012l66 29l424 -955l458 957l68 -33l-567 -1178q-92 -194 -244 -194h-2q-68 0 -127.5 40t-93.5 93z" />
<glyph unicode="z" horiz-adv-x="950" d="M37 0v51l723 826v2h-686v71h805v-51l-723 -823v-2h757v-74h-876z" />
<glyph unicode="{" horiz-adv-x="364" d="M-37 494v110h37q14 0 30.5 6t36 20.5t32 45.5t12.5 74v530q0 152 60 204t159 52v-63q-74 0 -111 -37t-37 -148v-538q0 -143 -119 -201q119 -57 119 -201v-541q0 -111 37 -146.5t111 -35.5v-63q-98 0 -158.5 52t-60.5 204v530q0 43 -12.5 74t-32 45t-36 20.5t-30.5 6.5 h-37z" />
<glyph unicode="|" horiz-adv-x="290" d="M111 -367v1840h71v-1840h-71z" />
<glyph unicode="}" horiz-adv-x="364" d="M37 -375q74 0 109.5 36t35.5 146v541q0 143 119 201q-119 57 -119 201v538q0 113 -35.5 149t-109.5 36v63q98 0 158.5 -52t60.5 -204v-530q0 -43 12.5 -74t31.5 -45.5t35.5 -20.5t31.5 -6h34v-110h-34q-14 0 -31 -6.5t-36 -20.5t-31.5 -45t-12.5 -74v-530 q0 -152 -60.5 -204t-158.5 -52v63z" />
<glyph unicode="~" horiz-adv-x="694" d="M43 657q10 66 51 100t96 34q43 0 89 -23l172 -80q31 -14 55 -14q55 0 72 69l73 -12q-10 -61 -49 -96t-96 -35q-43 0 -88 23l-172 79q-31 14 -56 15q-57 0 -73 -70z" />
<glyph unicode="&#xa1;" horiz-adv-x="290" d="M82 905.5q0 26.5 18.5 45t45 18.5t46 -18.5t19.5 -45t-19.5 -45t-46 -18.5t-45 18.5t-18.5 45zM111 -438v1024h71v-1024h-71z" />
<glyph unicode="&#xa2;" horiz-adv-x="950" d="M37 548.5q0 188.5 127 329t311 160.5v131h74v-127q197 -6 342 -157l-53 -49q-121 127 -289 133v-840q168 6 289 133l53 -49q-145 -152 -342 -158v-129h-74v131q-184 23 -311 163t-127 328.5zM111 549q0 -158 105 -278t259 -140v834q-156 -20 -260 -139t-104 -277z" />
<glyph unicode="&#xa3;" horiz-adv-x="1024" d="M18 0v74q98 0 168 69.5t70 167.5v346h-145v74h145v311q0 129 91 220.5t220 91.5q84 0 156 -43t113 -113l-64 -37q-68 119 -205 119q-98 0 -167.5 -70t-69.5 -168v-311h293v-74h-293v-346q0 -143 -111 -237h694v37h74v-111h-969z" />
<glyph unicode="&#xa4;" horiz-adv-x="657" d="M35 879l55 47l86 -84q60 47 152 47q90 0 159 -55l86 90l50 -56l-86 -86q53 -70 53 -155q0 -88 -49 -152l82 -82l-56 -47l-78 76q-72 -55 -161 -55q-88 0 -156 51l-82 -82l-47 55l78 78q-55 70 -55 158q0 90 57 164zM139 627q0 -78 55.5 -133.5t133.5 -55.5t133 55.5 t55 133.5t-55 133t-133 55t-133.5 -55t-55.5 -133z" />
<glyph unicode="&#xa5;" d="M18 1317v74h76l488 -805h8l493 823l66 -37l-475 -786h239v-74h-284l-6 -12v-133h290v-74h-290v-293h-74v293h-293v74h293v133l-8 12h-285v74h242l-445 731h-35z" />
<glyph unicode="&#xa6;" horiz-adv-x="290" d="M111 -367v734h71v-734h-71zM111 731v731h71v-731h-71z" />
<glyph unicode="&#xa7;" horiz-adv-x="1132" d="M55 606q0 88 54.5 165t162.5 124q-72 86 -71 195q0 129 92 215t274 86q150 0 257.5 -107.5t107.5 -259.5h-72q0 121 -86 207t-207 86q-150 0 -221.5 -63.5t-71.5 -163.5q0 -104 83 -174t201 -114t236.5 -92t201.5 -139.5t83 -226.5q0 -92 -56 -168t-161 -119 q70 -82 70 -196q0 -129 -91 -214t-274 -85q-152 0 -259 107.5t-107 256.5h73q0 -121 86 -207t207 -86q150 0 221.5 63.5t71.5 164.5q0 104 -83 173.5t-200.5 114t-236.5 92.5t-202 139t-83 226zM127 606q0 -109 76 -187.5t171 -115.5t225 -89t200 -103q102 35 154.5 97 t52.5 136q0 109 -76 187.5t-171 115.5t-225.5 89t-199.5 104q-102 -35 -154.5 -97.5t-52.5 -136.5z" />
<glyph unicode="&#xa8;" horiz-adv-x="657" d="M55 1216.5q0 26.5 18.5 45t45 18.5t45 -18.5t18.5 -45t-18.5 -46t-45 -19.5t-45 19.5t-18.5 46zM485 1216.5q0 26.5 18.5 45t45 18.5t45 -18.5t18.5 -45t-18.5 -46t-45 -19.5t-45 19.5t-18.5 46z" />
<glyph unicode="&#xa9;" horiz-adv-x="1662" d="M55.5 698.5q-0.5 192.5 102.5 352.5q100 166 280 262q186 98 393 98t394 -98q182 -98 282 -262q102 -160 102 -352.5t-102 -352.5q-100 -164 -282 -262q-178 -94 -393.5 -94t-393.5 94q-180 96 -280 262q-102 160 -102.5 352.5zM127 698q0 -170 92 -313q98 -154 254 -238 q162 -86 358 -86q199 0 359 86q156 84 254 238q92 143 92 313q0 172 -92 316q-96 152 -254 235q-166 90 -358.5 90t-358.5 -90q-158 -84 -254 -235q-92 -143 -92 -316zM348 704.5q0 202.5 144.5 348t349.5 145.5q201 0 348 -158l-55 -51q-129 135 -293 135 q-174 0 -298 -123.5t-124 -296t125 -297t297 -124.5q164 0 293 135l55 -51q-145 -156 -348 -156t-348.5 145.5t-145.5 348z" />
<glyph unicode="&#xaa;" horiz-adv-x="731" d="M37 868q0 98 85 164t228 66h273v71q0 184 -220 185q-150 0 -233 -64l-47 58q98 78 280 77q127 0 209 -61t82 -195v-530h-63l-8 76q-106 -92 -273 -92q-137 0 -225 67.5t-88 177.5zM111 868q0 -80 67.5 -127t171.5 -47q88 0 165 38t108 99v193h-273q-117 0 -178 -47 t-61 -109z" />
<glyph unicode="&#xab;" horiz-adv-x="657" d="M18 446v58l254 311l58 -47l-238 -291v-6l238 -287l-58 -45zM311 446v58l254 311l58 -47l-238 -291v-6l238 -287l-58 -45z" />
<glyph unicode="&#xac;" horiz-adv-x="1024" d="M37 657v74h876v-512h-71v438h-805z" />
<glyph unicode="&#xad;" horiz-adv-x="694" d="M55 586v71h584v-71h-584z" />
<glyph unicode="&#xae;" horiz-adv-x="1662" d="M55.5 698.5q-0.5 192.5 102.5 352.5q100 166 280 262q186 98 393 98t394 -98q182 -98 282 -262q102 -160 102 -352.5t-102 -352.5q-100 -164 -282 -262q-178 -94 -393.5 -94t-393.5 94q-180 96 -280 262q-102 160 -102.5 352.5zM127 698q0 -170 92 -313q98 -154 254 -238 q162 -86 358 -86q199 0 359 86q156 84 254 238q92 143 92 313q0 172 -92 316q-96 152 -254 235q-166 90 -358.5 90t-358.5 -90q-158 -84 -254 -235q-92 -143 -92 -316zM565 317v850h305q139 0 217 -75.5t78 -180.5q0 -94 -66.5 -160.5t-187.5 -76.5q22 -22 50 -62l126 -198 q12 -20 25 -29l12 -6q8 -2 19 -2h51v-74h-51q-8 0 -33 4q-31 8 -41 17q-25 18 -43 49l-127 198q-37 59 -61.5 71.5t-104.5 12.5h-94v-338h-74zM639 727h231q104 0 163 55.5t59 129t-57.5 128t-164.5 54.5h-231v-367z" />
<glyph unicode="&#xaf;" horiz-adv-x="657" d="M37 1243v74h586v-74h-586z" />
<glyph unicode="&#xb0;" horiz-adv-x="438" d="M37 1206q0 74 56.5 129.5t126 55.5t125.5 -55.5t56 -129.5q0 -72 -56 -127t-125.5 -55t-126 55.5t-56.5 126.5zM111 1206q0 -43 34.5 -75.5t73.5 -32.5q41 0 76 32.5t35 75.5t-36 77t-75 34t-73.5 -34t-34.5 -77z" />
<glyph unicode="&#xb1;" horiz-adv-x="913" d="M55 145v74h805v-74h-805zM55 731v74h365v364h74v-364h366v-74h-366v-364h-74v364h-365z" />
<glyph unicode="&#xb2;" horiz-adv-x="583" d="M37 879v59l282 281q88 86 122 140t34 101v2q0 76 -53 130.5t-129 54.5t-129 -54.5t-53 -130.5h-74q0 106 74.5 181t181 75t181.5 -74.5t75 -181.5v-2q0 -68 -43 -134t-135 -159l-219 -217h397v-71h-512z" />
<glyph unicode="&#xb3;" horiz-adv-x="583" d="M37 1098h74q0 -76 53 -130.5t129 -54.5t129 54.5t53 130.5q0 78 -53 134t-129 56v72q57 0 98 42t41 101.5t-41 101.5t-98 42t-98 -42t-41 -102h-74q0 88 62.5 151.5t150.5 63.5t149.5 -63.5t61.5 -151.5q0 -111 -88 -176q61 -35 97 -96.5t36 -132.5q0 -106 -75 -181 t-181.5 -75t-181 74.5t-74.5 181.5z" />
<glyph unicode="&#xb4;" horiz-adv-x="364" d="M33 1167l203 205l53 -51l-205 -205z" />
<glyph unicode="&#xb5;" horiz-adv-x="1095" d="M111 311v88v551h71v-639q0 -123 79 -189.5t214 -66.5q178 0 308 136.5t130 338.5v420h74v-950h-61l-11 270h-2q-61 -133 -178 -210.5t-260 -77.5q-229 0 -323 157l12 -506h-53v678z" />
<glyph unicode="&#xb6;" horiz-adv-x="802" d="M37 1024q0 121 86 207t207 86h364v-1684h-71v1610h-222v-1610h-71v1098q-121 0 -207 86t-86 207zM111 1024q0 -92 63.5 -155.5t155.5 -63.5v438q-92 0 -155.5 -63.5t-63.5 -155.5z" />
<glyph unicode="&#xb7;" horiz-adv-x="290" d="M74 485.5q0 26.5 18.5 45t45 18.5t45 -18.5t18.5 -45t-18.5 -46t-45 -19.5t-45 19.5t-18.5 46z" />
<glyph unicode="&#xb8;" horiz-adv-x="749" d="M172 -313l47 28q37 -59 113 -59q51 0 78.5 32.5t27.5 78t-25.5 79t-72.5 33.5q-31 1 -86 -24l-45 12l45 158l53 -15l-24 -84q25 8 57 8q78 0 125 -53t47 -123q0 -74 -55.5 -115.5t-124.5 -41.5q-109 0 -160 86z" />
<glyph unicode="&#xb9;" horiz-adv-x="290" d="M20 1571l99 110h63v-802h-71v682l-35 -37z" />
<glyph unicode="&#xba;" horiz-adv-x="876" d="M37 1024q0 166 117.5 283.5t283.5 117.5t285 -117.5t119 -283.5t-119 -283.5t-285 -117.5t-283.5 117.5t-117.5 283.5zM111 1024q0 -135 96 -232.5t231 -97.5t232.5 97.5t97.5 232.5t-97.5 232.5t-232.5 97.5t-231 -97.5t-96 -232.5z" />
<glyph unicode="&#xbb;" horiz-adv-x="657" d="M37 184l237 287v6l-237 291l57 47l254 -311v-58l-254 -307zM330 184l237 287v6l-237 291l55 47l254 -311v-58l-254 -307z" />
<glyph unicode="&#xbc;" horiz-adv-x="1243" d="M-27 96l1024 1172l54 -47l-1024 -1172zM20 1278l99 113h63v-805h-71v684l-35 -39zM657 74v59l7 10q152 229 208 350t56 238h71q0 -129 -54 -254t-189 -332h305v293h74v-293h71v-71h-71v-148h-74v148h-404z" />
<glyph unicode="&#xbd;" horiz-adv-x="1314" d="M-27 96l1024 1172l54 -47l-1024 -1172zM20 1278l99 113h63v-805h-71v684l-35 -39zM768 -12l283 278q156 154 155 244v2q0 76 -53 129t-129 53t-129 -53t-53 -129h-74q0 106 75 181t181 75t181 -75t75 -181v-2q0 -121 -178 -295l-219 -215h397v-74h-512v62z" />
<glyph unicode="&#xbe;" horiz-adv-x="1536" d="M37 805h74q0 -76 53 -129t129 -53t129 53t53 129q0 78 -53 134t-129 56v72q57 0 98 42t41 101.5t-41 101.5t-98 42t-98 -42t-41 -102h-74q0 88 62.5 151.5t150.5 63.5t149.5 -63.5t61.5 -151.5q0 -111 -88 -176q61 -35 97 -96t36 -133q0 -106 -75 -181t-181.5 -75 t-181 74.5t-74.5 181.5zM264 96l1024 1172l55 -47l-1024 -1172zM950 74v59l6 10q152 229 208.5 350t56.5 238h71q0 -129 -54 -254t-189 -332h305v293h71v-293h74v-71h-74v-148h-71v148h-404z" />
<glyph unicode="&#xbf;" horiz-adv-x="802" d="M37 -92q0 94 38 163.5t91 109.5t106.5 74t91 75t37.5 94v162h74v-162q0 -70 -38 -122t-91 -86t-106.5 -69.5t-91 -96t-37.5 -142.5q0 -121 85 -207t205.5 -86t206.5 86t86 207l74 18q0 -152 -108.5 -267.5t-258.5 -115.5q-152 0 -258 107.5t-106 257.5zM375 905.5 q0 26.5 18.5 45t45 18.5t46 -18.5t19.5 -45t-19.5 -45t-46 -18.5t-45 18.5t-18.5 45z" />
<glyph unicode="&#xc0;" d="M2 12l555 1397h55l557 -1397l-69 -24l-152 379h-727l-149 -379zM250 438h670l-334 840zM444 1759l54 51l202 -204l-53 -52z" />
<glyph unicode="&#xc1;" d="M2 12l555 1397h55l557 -1397l-69 -24l-152 379h-727l-149 -379zM250 438h670l-334 840zM508 1606l203 204l53 -51l-205 -205z" />
<glyph unicode="&#xc2;" d="M2 12l555 1397h55l557 -1397l-69 -24l-152 379h-727l-149 -379zM250 438h670l-334 840zM301 1593l272 217h60l272 -217l-45 -57l-254 201h-6l-252 -201z" />
<glyph unicode="&#xc3;" d="M2 12l555 1397h55l557 -1397l-69 -24l-152 379h-727l-149 -379zM250 438h670l-334 840zM328 1632l8 49q23 123 135 123q49 0 88 -20l115 -62q41 -18 61 -18q49 0 62 63l12 52l70 -15l-9 -49q-23 -123 -135 -123q-49 0 -88 21l-112 63q-37 16 -64 17q-49 0 -61 -64 l-11 -49z" />
<glyph unicode="&#xc4;" d="M2 12l555 1397h55l557 -1397l-69 -24l-152 379h-727l-149 -379zM250 438h670l-334 840zM330 1654.5q0 26.5 18.5 45t45 18.5t45 -18.5t18.5 -45t-18.5 -45t-45 -18.5t-45 18.5t-18.5 45zM760 1654.5q0 26.5 18.5 45t45 18.5t45 -18.5t18.5 -45t-18.5 -45t-45 -18.5 t-45 18.5t-18.5 45z" />
<glyph unicode="&#xc5;" d="M2 12l557 1399q-51 8 -98 53q-59 55 -59.5 127t59 127.5t125.5 55.5q65 0 123 -56q59 -55 59 -127q0 -74 -59 -129q-45 -43 -97 -51l557 -1399l-69 -24l-152 379h-727l-149 -379zM250 438h670l-334 840zM457 1591q0 -47 41 -88t88 -41q43 0 88 41q39 39 39 88t-39 88 q-43 39 -88 39t-88 -39q-41 -41 -41 -88z" />
<glyph unicode="&#xc6;" horiz-adv-x="1718" d="M4 -2l698 1393h908v-74h-660v-586h367v-74h-367v-583h731v-74h-802v367h-609l-200 -402zM307 438h572v879h-131z" />
<glyph unicode="&#xc7;" horiz-adv-x="1243" d="M37 694q0 297 199.5 506t494.5 209q260 0 457 -164l-47 -55q-172 145 -410 145q-262 0 -441 -187t-179 -453.5t179 -453t441 -186.5q240 0 410 144l47 -54q-197 -164 -457 -163q-31 0 -47 2l-25 -82q18 6 58 6q78 0 125 -52.5t47 -121.5q0 -74 -55.5 -116t-124.5 -42 q-109 0 -160 86l47 27q35 -57 113 -58q51 0 78.5 32t27.5 77t-25.5 80t-72.5 35q-25 0 -86 -27l-45 12l43 150q-256 39 -424 237.5t-168 466.5z" />
<glyph unicode="&#xc8;" horiz-adv-x="1095" d="M111 0v1391h876v-74h-805v-586h512v-74h-512v-583h879v-74h-950zM389 1759l53 51l203 -204l-53 -52z" />
<glyph unicode="&#xc9;" horiz-adv-x="1095" d="M111 0v1391h876v-74h-805v-586h512v-74h-512v-583h879v-74h-950zM453 1606l204 204l52 -51l-205 -205z" />
<glyph unicode="&#xca;" horiz-adv-x="1095" d="M111 0v1391h876v-74h-805v-586h512v-74h-512v-583h879v-74h-950zM248 1593l272 217h58l272 -217l-45 -57l-252 201h-8l-252 -201z" />
<glyph unicode="&#xcb;" horiz-adv-x="1095" d="M111 0v1391h876v-74h-805v-586h512v-74h-512v-583h879v-74h-950zM274 1654.5q0 26.5 18.5 45t45.5 18.5t45 -18.5t18 -45t-18 -45t-45 -18.5t-45.5 18.5t-18.5 45zM705 1654.5q0 26.5 18 45t45 18.5t45 -18.5t18 -45t-18 -45t-45 -18.5t-45 18.5t-18 45z" />
<glyph unicode="&#xcc;" horiz-adv-x="290" d="M-12 1759l53 51l203 -204l-54 -52zM111 0v1391h71v-1391h-71z" />
<glyph unicode="&#xcd;" horiz-adv-x="290" d="M51 1606l203 204l53 -51l-205 -205zM111 0v1391h71v-1391h-71z" />
<glyph unicode="&#xce;" horiz-adv-x="290" d="M-156 1593l273 217h59l273 -217l-48 -57l-251 201h-7l-254 -201zM111 0v1391h71v-1391h-71z" />
<glyph unicode="&#xcf;" horiz-adv-x="290" d="M-92 1654.5q0 26.5 19.5 45t46 18.5t45 -18.5t18.5 -45t-18.5 -45t-45 -18.5t-46 18.5t-19.5 45zM111 0v1391h71v-1391h-71zM256 1654.5q0 26.5 18.5 45t45 18.5t46 -18.5t19.5 -45t-19.5 -45t-46 -18.5t-45 18.5t-18.5 45z" />
<glyph unicode="&#xd0;" horiz-adv-x="1388" d="M37 657v74h145v660h475q289 0 493 -204t204 -492.5t-204 -491.5t-493 -203h-475v657h-145zM256 74h401q258 0 440.5 181t182.5 439t-182.5 440.5t-440.5 182.5h-401v-586h367v-74h-367v-583z" />
<glyph unicode="&#xd1;" horiz-adv-x="1243" d="M111 0v1409h73l877 -1298v1280h74v-1409h-76l-877 1296v-1278h-71zM344 1632l10 49q23 123 135 123q57 0 144.5 -50t120.5 -50q49 0 61 63l10 50l72 -13l-8 -49q-23 -123 -135 -123q-57 0 -144.5 50.5t-120.5 50.5q-49 0 -61 -64l-12 -49z" />
<glyph unicode="&#xd2;" horiz-adv-x="1462" d="M37 694q0 295 202.5 505t491.5 210t491.5 -210t202.5 -505t-202.5 -503.5t-491.5 -208.5t-491.5 208.5t-202.5 503.5zM111 694.5q0 -266.5 182 -453t438 -186.5q258 0 440.5 187.5t182.5 451.5q0 266 -183.5 453.5t-439.5 187.5t-438 -187t-182 -453.5zM571 1759l54 51 l202 -204l-51 -52z" />
<glyph unicode="&#xd3;" horiz-adv-x="1462" d="M37 694q0 295 202.5 505t491.5 210t491.5 -210t202.5 -505t-202.5 -503.5t-491.5 -208.5t-491.5 208.5t-202.5 503.5zM111 694.5q0 -266.5 182 -453t438 -186.5q258 0 440.5 187.5t182.5 451.5q0 266 -183.5 453.5t-439.5 187.5t-438 -187t-182 -453.5zM637 1606l203 204 l53 -51l-205 -205z" />
<glyph unicode="&#xd4;" horiz-adv-x="1462" d="M37 694q0 295 202.5 505t491.5 210t491.5 -210t202.5 -505t-202.5 -503.5t-491.5 -208.5t-491.5 208.5t-202.5 503.5zM111 694.5q0 -266.5 182 -453t438 -186.5q258 0 440.5 187.5t182.5 451.5q0 266 -183.5 453.5t-439.5 187.5t-438 -187t-182 -453.5zM430 1593l272 217 h58l272 -217l-45 -57l-252 201h-8l-252 -201z" />
<glyph unicode="&#xd5;" horiz-adv-x="1462" d="M37 694q0 295 202.5 505t491.5 210t491.5 -210t202.5 -505t-202.5 -503.5t-491.5 -208.5t-491.5 208.5t-202.5 503.5zM111 694.5q0 -266.5 182 -453t438 -186.5q258 0 440.5 187.5t182.5 451.5q0 266 -183.5 453.5t-439.5 187.5t-438 -187t-182 -453.5zM455 1632l10 49 q23 123 135 123q49 0 88 -20l113 -62q41 -18 61 -18q51 0 64 63l10 52l72 -15l-9 -49q-23 -123 -137 -123q-47 0 -86 21l-114 63q-37 16 -62 17q-51 0 -63 -64l-11 -49z" />
<glyph unicode="&#xd6;" horiz-adv-x="1462" d="M37 694q0 295 202.5 505t491.5 210t491.5 -210t202.5 -505t-202.5 -503.5t-491.5 -208.5t-491.5 208.5t-202.5 503.5zM111 694.5q0 -266.5 182 -453t438 -186.5q258 0 440.5 187.5t182.5 451.5q0 266 -183.5 453.5t-439.5 187.5t-438 -187t-182 -453.5zM457 1654.5 q0 26.5 18.5 45t45 18.5t46 -18.5t19.5 -45t-19.5 -45t-46 -18.5t-45 18.5t-18.5 45zM887 1654.5q0 26.5 18.5 45t45 18.5t46 -18.5t19.5 -45t-19.5 -45t-46 -18.5t-45 18.5t-18.5 45z" />
<glyph unicode="&#xd7;" horiz-adv-x="583" d="M33 453l209 204l-209 207l53 54l207 -209l207 209l51 -54l-207 -207l209 -204l-53 -54l-207 207l-207 -207z" />
<glyph unicode="&#xd8;" horiz-adv-x="1462" d="M37 694q0 297 199.5 506t494.5 209q268 0 467 -182l166 170l51 -51l-166 -172q176 -203 176 -480q0 -297 -199.5 -504.5t-494.5 -207.5q-270 0 -467 180l-166 -170l-51 51l166 172q-176 203 -176 479zM111 694q0 -248 153 -428l883 908q-174 162 -416 161 q-262 0 -441 -187t-179 -454zM315 215q172 -160 416 -160q262 0 442.5 186.5t180.5 452.5q0 246 -156 428z" />
<glyph unicode="&#xd9;" d="M74 494v897h71v-897q0 -180 129 -309.5t312 -129.5q180 0 309 128t129 311v897h74v-897q0 -211 -149.5 -361.5t-362.5 -150.5t-362.5 150.5t-149.5 361.5zM428 1759l51 51l205 -204l-53 -52z" />
<glyph unicode="&#xda;" d="M74 494v897h71v-897q0 -180 129 -309.5t312 -129.5q180 0 309 128t129 311v897h74v-897q0 -211 -149.5 -361.5t-362.5 -150.5t-362.5 150.5t-149.5 361.5zM492 1606l202 204l54 -51l-205 -205z" />
<glyph unicode="&#xdb;" d="M74 494v897h71v-897q0 -180 129 -309.5t312 -129.5q180 0 309 128t129 311v897h74v-897q0 -211 -149.5 -361.5t-362.5 -150.5t-362.5 150.5t-149.5 361.5zM283 1591l272 219h59l273 -219l-45 -55l-252 201h-8l-252 -201z" />
<glyph unicode="&#xdc;" d="M74 494v897h71v-897q0 -180 129 -309.5t312 -129.5q180 0 309 128t129 311v897h74v-897q0 -211 -149.5 -361.5t-362.5 -150.5t-362.5 150.5t-149.5 361.5zM311 1654.5q0 26.5 18.5 45t45 18.5t45 -18.5t18.5 -45t-18.5 -46t-45 -19.5t-45 19.5t-18.5 46zM739 1654.5 q0 26.5 19.5 45t46 18.5t45 -18.5t18.5 -45t-18.5 -46t-45 -19.5t-46 19.5t-19.5 46z" />
<glyph unicode="&#xdd;" d="M6 1372l62 37l518 -848l516 848l63 -37l-542 -891v-481h-74v481zM492 1606l202 204l54 -51l-205 -205z" />
<glyph unicode="&#xde;" horiz-adv-x="1095" d="M111 0v1391h71v-148h404q199 0 337 -138t138 -337t-138.5 -337t-336.5 -138h-404v-293h-71zM182 367h404q166 0 283.5 117.5t117.5 283.5t-117.5 283.5t-283.5 117.5h-404v-802z" />
<glyph unicode="&#xdf;" horiz-adv-x="1024" d="M37 879v71h74v148q0 147 99 229t234 82q129 0 226.5 -73.5t97.5 -200.5q0 -137 -109 -236q-84 -76 -221 -86v-16q160 -57 217 -88q166 -90 249 -208t83 -235q0 -123 -89 -203.5t-241 -80.5q-102 0 -200.5 40.5t-157.5 120.5l59 43q98 -131 299 -131q121 0 188.5 58.5 t67.5 152.5t-73.5 196.5t-214.5 182.5q-86 47 -238 109l-20 8v117h34q129 0 211 78.5t82 177.5q0 92 -73.5 146t-176.5 54q-106 0 -184 -61.5t-78 -175.5v-1098h-71v879h-74z" />
<glyph unicode="&#xe0;" horiz-adv-x="1005" d="M37 293q0 123 107.5 208t256.5 85h441v90q0 88 -95.5 154.5t-234.5 66.5q-178 0 -315 -84l-39 61q154 94 354 95q164 0 282.5 -84t118.5 -209v-676h-61l-8 201h-2q-59 -100 -167 -159.5t-237 -59.5q-186 0 -293.5 88t-107.5 223zM111 293q0 -102 84.5 -170t242.5 -68 q164 0 284 103.5t120 224.5v129h-441q-123 0 -206.5 -65.5t-83.5 -153.5zM362 1321l52 51l204 -205l-53 -51z" />
<glyph unicode="&#xe1;" horiz-adv-x="1005" d="M37 293q0 123 107.5 208t256.5 85h441v90q0 88 -95.5 154.5t-234.5 66.5q-178 0 -315 -84l-39 61q154 94 354 95q164 0 282.5 -84t118.5 -209v-676h-61l-8 201h-2q-59 -100 -167 -159.5t-237 -59.5q-186 0 -293.5 88t-107.5 223zM111 293q0 -102 84.5 -170t242.5 -68 q164 0 284 103.5t120 224.5v129h-441q-123 0 -206.5 -65.5t-83.5 -153.5zM426 1167l203 205l53 -51l-205 -205z" />
<glyph unicode="&#xe2;" horiz-adv-x="1005" d="M37 293q0 123 107.5 208t256.5 85h441v90q0 88 -95.5 154.5t-234.5 66.5q-178 0 -315 -84l-39 61q154 94 354 95q164 0 282.5 -84t118.5 -209v-676h-61l-8 201h-2q-59 -100 -167 -159.5t-237 -59.5q-186 0 -293.5 88t-107.5 223zM111 293q0 -102 84.5 -170t242.5 -68 q164 0 284 103.5t120 224.5v129h-441q-123 0 -206.5 -65.5t-83.5 -153.5zM219 1153l273 219h59l272 -219l-45 -55l-252 200h-8l-252 -200z" />
<glyph unicode="&#xe3;" horiz-adv-x="1005" d="M37 293q0 123 107.5 208t256.5 85h441v90q0 88 -95.5 154.5t-234.5 66.5q-178 0 -315 -84l-39 61q154 94 354 95q164 0 282.5 -84t118.5 -209v-676h-61l-8 201h-2q-59 -100 -167 -159.5t-237 -59.5q-186 0 -293.5 88t-107.5 223zM111 293q0 -102 84.5 -170t242.5 -68 q164 0 284 103.5t120 224.5v129h-441q-123 0 -206.5 -65.5t-83.5 -153.5zM244 1194l10 49q23 123 135 123q57 0 144 -50t120 -50q49 0 62 63l10 49l72 -12l-9 -49q-23 -123 -135 -123q-57 0 -144 50t-120 50q-49 0 -61 -63l-13 -49z" />
<glyph unicode="&#xe4;" horiz-adv-x="1005" d="M37 293q0 123 107.5 208t256.5 85h441v90q0 88 -95.5 154.5t-234.5 66.5q-178 0 -315 -84l-39 61q154 94 354 95q164 0 282.5 -84t118.5 -209v-676h-61l-8 201h-2q-59 -100 -167 -159.5t-237 -59.5q-186 0 -293.5 88t-107.5 223zM111 293q0 -102 84.5 -170t242.5 -68 q164 0 284 103.5t120 224.5v129h-441q-123 0 -206.5 -65.5t-83.5 -153.5zM248 1216.5q0 26.5 18.5 45t45 18.5t45 -18.5t18.5 -45t-18.5 -46t-45 -19.5t-45 19.5t-18.5 46zM676 1216.5q0 26.5 19.5 45t46 18.5t45 -18.5t18.5 -45t-18.5 -46t-45 -19.5t-46 19.5t-19.5 46z " />
<glyph unicode="&#xe5;" horiz-adv-x="1005" d="M37 293q0 123 107.5 208t256.5 85h441v90q0 88 -95.5 154.5t-234.5 66.5q-178 0 -315 -84l-39 61q154 94 354 95q164 0 282.5 -84t118.5 -209v-676h-61l-8 201h-2q-59 -100 -167 -159.5t-237 -59.5q-186 0 -293.5 88t-107.5 223zM111 293q0 -102 84.5 -170t242.5 -68 q164 0 284 103.5t120 224.5v129h-441q-123 0 -206.5 -65.5t-83.5 -153.5zM338 1206q0 74 57 129q60 56 125.5 56t124.5 -56q57 -55 57 -129q0 -72 -57 -127q-59 -55 -125 -55q-63 0 -125 57q-57 55 -57 125zM393 1206q0 -49 39 -88t88 -39q45 0 88 39q41 41 41 88t-41 88 q-45 41 -88 41t-88 -41q-39 -39 -39 -88z" />
<glyph unicode="&#xe6;" horiz-adv-x="1773" d="M37 238q0 111 105.5 192.5t295.5 81.5h404v127q0 139 -93.5 198.5t-228.5 59.5q-96 0 -183 -24.5t-132 -61.5l-45 55q57 47 157.5 75t202.5 28q145 0 253 -60.5t134 -187.5q66 113 179.5 180.5t248.5 67.5q248 0 398 -203l20 -27l-24 -22q-4 -4 -80 -73t-118 -100.5 t-119 -68.5t-142 -37h-355q14 -162 135 -272.5t285 -110.5q180 0 307 133l54 -49q-147 -158 -361 -157q-131 0 -242.5 63.5t-179.5 171.5l-8 -217h-55l-6 150h-4q-70 -80 -180.5 -124t-221.5 -44q-197 0 -299 74.5t-102 181.5zM111 238q0 -78 81.5 -130.5t245.5 -52.5 q121 0 241 52.5t163 138.5v192h-404q-156 0 -241.5 -60.5t-85.5 -139.5zM915 512h357q33 0 70.5 13.5t66.5 27.5t72 48t60.5 48.5t61.5 55t50 45.5q-127 147 -318 147q-162 0 -283.5 -111.5t-136.5 -273.5z" />
<glyph unicode="&#xe7;" horiz-adv-x="950" d="M37 475q0 203 144 348.5t349 145.5q201 0 349 -158l-54 -51q-131 137 -295 137q-172 0 -295.5 -125t-123.5 -297t123.5 -296t295.5 -124q166 0 295 135l54 -51q-147 -158 -349 -157h-22l-27 -95q18 6 56 7q78 0 125 -53.5t47 -123.5q0 -74 -54.5 -114.5t-124.5 -40.5 q-111 0 -161 86l49 26q37 -59 112 -59q51 0 79 33t28 78t-26.5 78.5t-73.5 33.5q-29 0 -84 -24l-47 12l47 162q-176 29 -296 167t-120 320z" />
<glyph unicode="&#xe8;" horiz-adv-x="987" d="M37 475q0 205 145.5 349.5t347.5 144.5q121 0 225.5 -54.5t174.5 -148.5l18 -27l-24 -22q-4 -4 -80 -73t-118 -100.5t-118.5 -68.5t-142.5 -37h-354q14 -162 135 -272.5t284 -110.5q180 0 308 133l53 -49q-147 -158 -361 -157q-205 0 -349 144t-144 349zM111 512h356 q33 0 70.5 13.5t66.5 27.5t72 48t60.5 48.5t61.5 55t50 45.5q-127 147 -318 147q-162 0 -283.5 -111.5t-135.5 -273.5zM373 1321l51 51l205 -205l-54 -51z" />
<glyph unicode="&#xe9;" horiz-adv-x="987" d="M37 475q0 205 145.5 349.5t347.5 144.5q121 0 225.5 -54.5t174.5 -148.5l18 -27l-24 -22q-4 -4 -80 -73t-118 -100.5t-118.5 -68.5t-142.5 -37h-354q14 -162 135 -272.5t284 -110.5q180 0 308 133l53 -49q-147 -158 -361 -157q-205 0 -349 144t-144 349zM111 512h356 q33 0 70.5 13.5t66.5 27.5t72 48t60.5 48.5t61.5 55t50 45.5q-127 147 -318 147q-162 0 -283.5 -111.5t-135.5 -273.5zM436 1167l203 205l53 -51l-205 -205z" />
<glyph unicode="&#xea;" horiz-adv-x="987" d="M37 475q0 205 145.5 349.5t347.5 144.5q121 0 225.5 -54.5t174.5 -148.5l18 -27l-24 -22q-4 -4 -80 -73t-118 -100.5t-118.5 -68.5t-142.5 -37h-354q14 -162 135 -272.5t284 -110.5q180 0 308 133l53 -49q-147 -158 -361 -157q-205 0 -349 144t-144 349zM111 512h356 q33 0 70.5 13.5t66.5 27.5t72 48t60.5 48.5t61.5 55t50 45.5q-127 147 -318 147q-162 0 -283.5 -111.5t-135.5 -273.5zM227 1153l273 219h59l272 -219l-45 -55l-251 200h-9l-252 -200z" />
<glyph unicode="&#xeb;" horiz-adv-x="987" d="M37 475q0 205 145.5 349.5t347.5 144.5q121 0 225.5 -54.5t174.5 -148.5l18 -27l-24 -22q-4 -4 -80 -73t-118 -100.5t-118.5 -68.5t-142.5 -37h-354q14 -162 135 -272.5t284 -110.5q180 0 308 133l53 -49q-147 -158 -361 -157q-205 0 -349 144t-144 349zM111 512h356 q33 0 70.5 13.5t66.5 27.5t72 48t60.5 48.5t61.5 55t50 45.5q-127 147 -318 147q-162 0 -283.5 -111.5t-135.5 -273.5zM256 1216.5q0 26.5 18.5 45t45 18.5t45 -18.5t18.5 -45t-18.5 -46t-45 -19.5t-45 19.5t-18.5 46zM684 1216.5q0 26.5 19.5 45t46 18.5t45 -18.5t18.5 -45 t-18.5 -46t-45 -19.5t-46 19.5t-19.5 46z" />
<glyph unicode="&#xec;" horiz-adv-x="290" d="M-12 1321l51 51l205 -205l-54 -51zM111 0v950h71v-950h-71z" />
<glyph unicode="&#xed;" horiz-adv-x="290" d="M51 1167l203 205l53 -51l-205 -205zM111 0v950h71v-950h-71z" />
<glyph unicode="&#xee;" horiz-adv-x="290" d="M-63 1225l180 147h59l180 -147l-45 -56l-161 129h-7l-161 -129zM111 0v950h71v-950h-71z" />
<glyph unicode="&#xef;" horiz-adv-x="290" d="M-55 1216.5q0 26.5 18.5 45t45 18.5t46 -18.5t19.5 -45t-19.5 -46t-46 -19.5t-45 19.5t-18.5 46zM111 0v950h71v-950h-71zM219 1216.5q0 26.5 18.5 45t45 18.5t46 -18.5t19.5 -45t-19.5 -46t-46 -19.5t-45 19.5t-18.5 46z" />
<glyph unicode="&#xf0;" horiz-adv-x="876" d="M37 475.5q0 233.5 114.5 363.5t268.5 130q86 0 174 -45t149 -129q-41 254 -159 372l-168 -67l-27 69l131 52q-49 33 -131 63l27 68q109 -39 182 -99l156 62l26 -70l-125 -49q180 -209 187 -704v-35q-6 -221 -137.5 -348t-285 -127t-268 130t-114.5 363.5zM111 475 q0 -203 94 -311.5t215 -108.5q125 0 235.5 108.5t112.5 305.5v20q-6 193 -114.5 300.5t-233.5 107.5q-121 0 -215 -108.5t-94 -313.5z" />
<glyph unicode="&#xf1;" horiz-adv-x="1077" d="M111 0v950h61l8 -270h6q63 131 180 210t257 79q166 0 265 -89t99 -241v-639h-74v639q0 123 -77.5 190.5t-212.5 67.5q-182 0 -311.5 -139.5t-129.5 -337.5v-420h-71zM272 1194l11 49q23 123 135 123q57 0 144 -50t120 -50q49 0 61 63l11 49l71 -12l-8 -49 q-23 -123 -135 -123q-57 0 -144 50t-120 50q-49 0 -62 -63l-12 -49z" />
<glyph unicode="&#xf2;" horiz-adv-x="1024" d="M37 475q0 205 139 349.5t336 144.5t336 -144.5t139 -349.5t-139 -349t-336 -144t-336 144t-139 349zM111 475q0 -174 117.5 -297t283.5 -123t283.5 123t117.5 297t-117.5 298t-283.5 124t-283.5 -124t-117.5 -298zM354 1321l52 51l204 -205l-53 -51z" />
<glyph unicode="&#xf3;" horiz-adv-x="1024" d="M37 475q0 205 139 349.5t336 144.5t336 -144.5t139 -349.5t-139 -349t-336 -144t-336 144t-139 349zM111 475q0 -174 117.5 -297t283.5 -123t283.5 123t117.5 297t-117.5 298t-283.5 124t-283.5 -124t-117.5 -298zM418 1167l203 205l53 -51l-205 -205z" />
<glyph unicode="&#xf4;" horiz-adv-x="1024" d="M37 475q0 205 139 349.5t336 144.5t336 -144.5t139 -349.5t-139 -349t-336 -144t-336 144t-139 349zM111 475q0 -174 117.5 -297t283.5 -123t283.5 123t117.5 297t-117.5 298t-283.5 124t-283.5 -124t-117.5 -298zM209 1153l272 219h60l272 -219l-45 -55l-252 200h-8 l-252 -200z" />
<glyph unicode="&#xf5;" horiz-adv-x="1024" d="M37 475q0 205 139 349.5t336 144.5t336 -144.5t139 -349.5t-139 -349t-336 -144t-336 144t-139 349zM111 475q0 -174 117.5 -297t283.5 -123t283.5 123t117.5 297t-117.5 298t-283.5 124t-283.5 -124t-117.5 -298zM236 1194l10 49q23 123 135 123q57 0 144 -50t120 -50 q49 0 62 63l10 49l71 -12l-8 -49q-23 -123 -135 -123q-57 0 -144 50t-120 50q-49 0 -62 -63l-12 -49z" />
<glyph unicode="&#xf6;" horiz-adv-x="1024" d="M37 475q0 205 139 349.5t336 144.5t336 -144.5t139 -349.5t-139 -349t-336 -144t-336 144t-139 349zM111 475q0 -174 117.5 -297t283.5 -123t283.5 123t117.5 297t-117.5 298t-283.5 124t-283.5 -124t-117.5 -298zM238 1216.5q0 26.5 18 45t45 18.5t45.5 -18.5t18.5 -45 t-18.5 -46t-45.5 -19.5t-45 19.5t-18 46zM666 1216.5q0 26.5 19.5 45t46 18.5t45 -18.5t18.5 -45t-18.5 -46t-45 -19.5t-46 19.5t-19.5 46z" />
<glyph unicode="&#xf7;" horiz-adv-x="731" d="M37 657v74h657v-74h-657zM299 411.5q0 26.5 19.5 45t46 18.5t45 -18.5t18.5 -45t-18.5 -45t-45 -18.5t-46 18.5t-19.5 45zM299 979q0 27 19.5 45t46 18t45 -18t18.5 -45t-18.5 -46.5t-45 -19.5t-46 19.5t-19.5 46.5z" />
<glyph unicode="&#xf8;" horiz-adv-x="1095" d="M37 475q0 213 149.5 362.5t362.5 149.5q190 0 336 -125l114 115l50 -51l-113 -115q125 -145 125 -336q0 -213 -149.5 -362.5t-362.5 -149.5q-190 0 -336 125l-115 -113l-51 50l115 114q-125 145 -125 336zM111 475q0 -162 102 -282l618 618q-121 102 -282 102 q-180 0 -309 -129t-129 -309zM264 141q125 -104 285 -104q180 0 309 129t129 309q0 160 -104 285z" />
<glyph unicode="&#xf9;" horiz-adv-x="1077" d="M92 311v639h72v-639q0 -123 79 -189.5t214 -66.5q182 0 311 139.5t129 335.5v420h72v-950h-62l-8 270h-6q-63 -131 -180 -209.5t-256 -78.5q-166 0 -265.5 89t-99.5 240zM373 1321l51 51l205 -205l-54 -51z" />
<glyph unicode="&#xfa;" horiz-adv-x="1077" d="M92 311v639h72v-639q0 -123 79 -189.5t214 -66.5q182 0 311 139.5t129 335.5v420h72v-950h-62l-8 270h-6q-63 -131 -180 -209.5t-256 -78.5q-166 0 -265.5 89t-99.5 240zM436 1167l203 205l53 -51l-205 -205z" />
<glyph unicode="&#xfb;" horiz-adv-x="1077" d="M92 311v639h72v-639q0 -123 79 -189.5t214 -66.5q182 0 311 139.5t129 335.5v420h72v-950h-62l-8 270h-6q-63 -131 -180 -209.5t-256 -78.5q-166 0 -265.5 89t-99.5 240zM227 1153l273 219h59l272 -219l-45 -55l-251 200h-9l-252 -200z" />
<glyph unicode="&#xfc;" horiz-adv-x="1077" d="M92 311v639h72v-639q0 -123 79 -189.5t214 -66.5q182 0 311 139.5t129 335.5v420h72v-950h-62l-8 270h-6q-63 -131 -180 -209.5t-256 -78.5q-166 0 -265.5 89t-99.5 240zM256 1216.5q0 26.5 18.5 45t45 18.5t45 -18.5t18.5 -45t-18.5 -46t-45 -19.5t-45 19.5t-18.5 46z M684 1216.5q0 26.5 19.5 45t46 18.5t45 -18.5t18.5 -45t-18.5 -46t-45 -19.5t-46 19.5t-19.5 46z" />
<glyph unicode="&#xfd;" horiz-adv-x="1024" d="M-14 -305l61 39q27 -43 71 -72t89 -29q102 0 178 156l68 135l-449 1012l66 29l424 -955l458 957l68 -33l-567 -1178q-92 -195 -246 -194q-68 0 -127.5 40t-93.5 93zM418 1167l203 205l53 -51l-205 -205z" />
<glyph unicode="&#xfe;" horiz-adv-x="1095" d="M111 -438v1829h71v-646q59 113 164 177.5t240 64.5q209 0 342 -148.5t133 -363.5t-133 -363.5t-342 -148.5q-135 0 -239.5 64.5t-164.5 177.5v-643h-71zM182 475.5q0 -186.5 113 -312.5t291 -126t289.5 126t111.5 312.5t-111.5 312t-289.5 125.5t-291 -125.5t-113 -312z " />
<glyph unicode="&#xff;" horiz-adv-x="1024" d="M-14 -305l61 39q27 -43 71 -72t89 -29q102 0 178 156l68 135l-449 1012l66 29l424 -955l458 957l68 -33l-567 -1178q-92 -195 -246 -194q-68 0 -127.5 40t-93.5 93zM238 1216.5q0 26.5 18 45t45 18.5t46.5 -18.5t19.5 -45t-19.5 -46t-46.5 -19.5t-45 19.5t-18 46z M668 1216.5q0 26.5 18.5 45t45 18.5t45 -18.5t18.5 -45t-18.5 -46t-45 -19.5t-45 19.5t-18.5 46z" />
<glyph unicode="&#x152;" horiz-adv-x="1681" d="M37 694.5q0 288.5 202.5 492.5t491.5 204h842v-74h-660v-586h367v-74h-367v-583h734v-74h-916q-289 0 -491.5 203t-202.5 491.5zM111 694q0 -258 181 -439t439 -181h111v1243h-111q-258 0 -439 -182.5t-181 -440.5z" />
<glyph unicode="&#x153;" horiz-adv-x="1845" d="M37 475q0 207 136 350.5t339 143.5q152 0 269.5 -83t170.5 -220q57 135 182.5 219t274.5 84q248 0 397 -203l21 -27l-27 -22q-4 -4 -79.5 -73t-117.5 -100.5t-119 -68.5t-143 -37h-352q14 -162 135 -272.5t285 -110.5q180 0 307 133l51 -49q-147 -158 -358 -157 q-152 0 -275.5 84t-181.5 219q-53 -137 -170.5 -220t-269.5 -83q-203 0 -339 143t-136 350zM111 475q0 -176 114.5 -298t286.5 -122t286.5 122t114.5 298t-114.5 299t-286.5 123t-286.5 -123t-114.5 -299zM989 512h354q29 0 59 8t62.5 25.5t57 33t59.5 44t51.5 43t51 46 t42.5 38.5q-127 147 -317 147q-162 0 -283.5 -111.5t-136.5 -273.5z" />
<glyph unicode="&#x178;" d="M6 1372l62 37l518 -848l516 848l63 -37l-542 -891v-481h-74v481zM311 1654.5q0 26.5 18.5 45t45 18.5t45 -18.5t18.5 -45t-18.5 -46t-45 -19.5t-45 19.5t-18.5 46zM739 1654.5q0 26.5 19.5 45t46 18.5t45 -18.5t18.5 -45t-18.5 -46t-45 -19.5t-46 19.5t-19.5 46z" />
<glyph unicode="&#x2c6;" horiz-adv-x="731" d="M63 1153l273 219h59l273 -219l-45 -55l-254 200h-7l-251 -200z" />
<glyph unicode="&#x2dc;" horiz-adv-x="512" d="M-20 1194l10 49q23 123 135 123q49 0 88 -20l113 -62q41 -18 61 -18q51 0 64 63l10 49l71 -12l-10 -49q-23 -123 -135 -123q-49 0 -88 20l-113 62q-41 18 -61 18q-51 0 -64 -63l-10 -49z" />
<glyph unicode="&#x2000;" horiz-adv-x="909" />
<glyph unicode="&#x2001;" horiz-adv-x="1819" />
<glyph unicode="&#x2002;" horiz-adv-x="909" />
<glyph unicode="&#x2003;" horiz-adv-x="1819" />
<glyph unicode="&#x2004;" horiz-adv-x="606" />
<glyph unicode="&#x2005;" horiz-adv-x="454" />
<glyph unicode="&#x2006;" horiz-adv-x="303" />
<glyph unicode="&#x2007;" horiz-adv-x="303" />
<glyph unicode="&#x2008;" horiz-adv-x="227" />
<glyph unicode="&#x2009;" horiz-adv-x="363" />
<glyph unicode="&#x200a;" horiz-adv-x="101" />
<glyph unicode="&#x2010;" horiz-adv-x="694" d="M55 586v71h584v-71h-584z" />
<glyph unicode="&#x2011;" horiz-adv-x="694" d="M55 586v71h584v-71h-584z" />
<glyph unicode="&#x2012;" horiz-adv-x="694" d="M55 586v71h584v-71h-584z" />
<glyph unicode="&#x2013;" horiz-adv-x="876" d="M37 586v71h805v-71h-805z" />
<glyph unicode="&#x2014;" horiz-adv-x="1755" d="M37 586v71h1681v-71h-1681z" />
<glyph unicode="&#x2018;" horiz-adv-x="290" d="M92 1188q0 135 121 256l35 -33q-74 -74 -74 -162q18 -6 31.5 -23.5t13.5 -37.5q0 -27 -18.5 -45.5t-45 -18.5t-45 18.5t-18.5 45.5z" />
<glyph unicode="&#x2019;" horiz-adv-x="290" d="M82 1157q74 74 74 164q-45 14 -45 59q0 27 18 45.5t45 18.5t45.5 -18.5t18.5 -45.5q0 -133 -123 -256z" />
<glyph unicode="&#x201a;" horiz-adv-x="290" d="M82 -178q74 74 74 164q-45 14 -45 59q0 27 18 46.5t45 19.5t45.5 -19.5t18.5 -46.5q0 -133 -123 -256z" />
<glyph unicode="&#x201c;" horiz-adv-x="512" d="M92 1188q0 135 121 256l35 -33q-74 -74 -74 -162q18 -6 31.5 -23.5t13.5 -37.5q0 -27 -18.5 -45.5t-45 -18.5t-45 18.5t-18.5 45.5zM311 1188q0 133 123 256l33 -33q-74 -74 -74 -162q18 -6 31.5 -23.5t13.5 -37.5q0 -27 -18.5 -45.5t-45 -18.5t-45 18.5t-18.5 45.5z" />
<glyph unicode="&#x201d;" horiz-adv-x="512" d="M82 1157q74 74 74 164q-45 14 -45 59q0 27 18 45.5t45 18.5t45.5 -18.5t18.5 -45.5q0 -133 -123 -256zM301 1157q74 74 74 164q-45 14 -45 59q0 27 18.5 45.5t45 18.5t45 -18.5t18.5 -45.5q0 -133 -123 -256z" />
<glyph unicode="&#x201e;" horiz-adv-x="512" d="M82 -178q74 74 74 164q-45 14 -45 59q0 27 18 46.5t45 19.5t45.5 -19.5t18.5 -46.5q0 -133 -123 -256zM301 -178q74 74 74 164q-45 14 -45 59q0 27 18.5 46.5t45 19.5t45 -19.5t18.5 -46.5q0 -133 -123 -256z" />
<glyph unicode="&#x2022;" horiz-adv-x="438" d="M37 475q0 76 53 129t129 53t129 -53t53 -129t-53 -129t-129 -53t-129 53t-53 129z" />
<glyph unicode="&#x2026;" horiz-adv-x="1024" d="M74 45q0 27 18.5 46.5t45 19.5t45 -19.5t18.5 -46.5t-18.5 -45t-45 -18t-45 18t-18.5 45zM438 45q0 27 19.5 46.5t46 19.5t45 -19.5t18.5 -46.5t-18.5 -45t-45 -18t-46 18t-19.5 45zM805 45q0 27 18.5 46.5t45 19.5t45 -19.5t18.5 -46.5t-18.5 -45t-45 -18t-45 18 t-18.5 45z" />
<glyph unicode="&#x202f;" horiz-adv-x="363" />
<glyph unicode="&#x2039;" horiz-adv-x="364" d="M18 446v58l254 311l58 -47l-238 -291v-6l238 -287l-58 -45z" />
<glyph unicode="&#x203a;" horiz-adv-x="364" d="M37 184l237 287v6l-237 291l57 47l254 -311v-58l-254 -307z" />
<glyph unicode="&#x205f;" horiz-adv-x="454" />
<glyph unicode="&#x20ac;" horiz-adv-x="1370" d="M0 512l8 74h146q-8 49 -9 108v37h-71l8 74h72q41 266 245.5 443t479.5 177q238 0 424 -135l14 -10v-111h-74v72q-170 113 -364 113q-244 0 -426.5 -157t-223.5 -392h750l-10 -74h-748q0 -6 -1 -18.5t-1 -18.5q0 -47 10 -108h676l-8 -74h-651q59 -207 234 -341t399 -134 q211 0 378 121l46 -60q-190 -135 -424 -135q-252 0 -450 154.5t-259 394.5h-170z" />
<glyph unicode="&#x2122;" horiz-adv-x="1974" d="M111 1317v74h657v-74h-293v-805h-74v805h-290zM807 512v74h2l96 809h58l370 -805l371 805h57l113 -865l-72 -10l-92 713l-342 -744h-68l-342 742l-86 -719h-65z" />
<glyph unicode="&#xe000;" horiz-adv-x="975" d="M0 975h975v-975h-975v975z" />
<glyph unicode="&#xfb01;" horiz-adv-x="876" d="M37 879v71h145v166q0 121 86 207t207 86q68 0 129 -29l-33 -65q-47 20 -96 20q-90 0 -154.5 -64.5t-64.5 -154.5v-166h512v-950h-74v879h-438v-879h-74v879h-145zM668 1253.5q0 26.5 18.5 45t45 18.5t45 -18.5t18.5 -45t-18.5 -46t-45 -19.5t-45 19.5t-18.5 46z" />
<glyph unicode="&#xfb02;" horiz-adv-x="876" d="M37 879v71h145v166q0 121 86 207t207 86q68 0 129 -29l-33 -65q-47 20 -96 20q-90 0 -154.5 -64.5t-64.5 -154.5v-166h256v-71h-256v-879h-74v879h-145zM694 0v1391h74v-1391h-74z" />
<glyph unicode="&#xfb03;" horiz-adv-x="1388" d="M37 879v71h145v148q0 129 91.5 220t220.5 91q86 0 168 -51l-39 -60q-55 37 -129 37q-98 0 -168 -69.5t-70 -167.5v-148h475v166q0 121 86 207t207 86q66 0 127 -29l-33 -65q-47 20 -94 20q-90 0 -154.5 -64.5t-64.5 -154.5v-166h512v-950h-74v879h-438v-879h-74v879h-475 v-879h-74v879h-145zM1217 1253.5q0 26.5 18 45t45 18.5t45 -18.5t18 -45t-18 -46t-45 -19.5t-45 19.5t-18 46z" />
<glyph unicode="&#xfb04;" horiz-adv-x="1388" d="M37 879v71h145v148q0 129 91.5 220t220.5 91q86 0 168 -51l-39 -60q-55 37 -129 37q-98 0 -168 -69.5t-70 -167.5v-148h438v166q0 121 86 207t207 86q68 0 129 -29l-33 -65q-47 20 -96 20q-90 0 -154.5 -64.5t-64.5 -154.5v-166h256v-71h-256v-879h-74v879h-438v-879h-74 v879h-145zM1206 0v1391h74v-1391h-74z" />
</font>
</defs>
</svg>
